ffmpeg started on 2025-05-24 at 14:58:18
Report written to "D:\Convert\FFMetrics\reports\psnr_report-6.txt"
Log level: 32
Command line:
ffmpeg -hide_banner -nostdin -i "G:\\\xc0\xed\xe8\xec\xe5\\\xce\xed\xe3\xee\xe8\xed\xe3\xe8\\!_33_\xc7\xe8\xec\xe0_2024\\DreamCast\\\xcd\xe5\xf0\xe0\xe7\xf3\xec\xed\xfb\xe9 \xe0\xed\xe3\xe5\xeb \xe2 \xf2\xe0\xed\xf6\xe5 \xf1 \xe4\xe5\xec\xee\xed\xee\xec\\[DC] Oroka na Tenshi wa Akuma to Odoru - 02_Telegram_HEVC.mkv" -i "G:\\\xc0\xed\xe8\xec\xe5\\\xce\xed\xe3\xee\xe8\xed\xe3\xe8\\!_33_\xc7\xe8\xec\xe0_2024\\DreamCast\\\xcd\xe5\xf0\xe0\xe7\xf3\xec\xed\xfb\xe9 \xe0\xed\xe3\xe5\xeb \xe2 \xf2\xe0\xed\xf6\xe5 \xf1 \xe4\xe5\xec\xee\xed\xee\xec\\[DC] Oroka na Tenshi wa Akuma to Odoru - 02_Telegram.mp4" -lavfi "[0:v]settb=AVTB,setpts=PTS-STARTPTS,format=pix_fmts=yuv420p10,fps=24000/1001,scale=1920:1080:flags=bicubic[main];[1:v]settb=AVTB,setpts=PTS-STARTPTS,format=pix_fmts=yuv420p,fps=24000/1001,scale=1920:1080:flags=bicubic[ref];[main][ref]psnr=eof_action=endall:stats_file='D\\:/Convert/FFMetrics/logs/psnr_logfile-6.txt'" -f null -
Input #0, matroska,webm, from 'G:\Аниме\Онгоинги\!_33_Зима_2024\DreamCast\Неразумный ангел в танце с демоном\[DC] Oroka na Tenshi wa Akuma to Odoru - 02_Telegram_HEVC.mkv':
  Metadata:
    COMPATIBLE_BRANDS: isomiso2avc1mp41
    MAJOR_BRAND     : isom
    MINOR_VERSION   : 512
    ENCODER         : Lavf61.7.100
  Duration: 00:23:46.73, start: -0.021000, bitrate: 1167 kb/s
  Stream #0:0: Video: hevc (Main 10), yuv420p10le(tv, bt709, progressive), 1920x1080 [SAR 1:1 DAR 16:9], 23.98 fps, 23.98 tbr, 1k tbn (default)
      Metadata:
        HANDLER_NAME    : VideoHandler
        VENDOR_ID       : [0][0][0][0]
        ENCODER         : Lavc61.19.100 libx265
        BPS             : 969488
        DURATION        : 00:23:46.633708333
        NUMBER_OF_FRAMES: 34205
        NUMBER_OF_BYTES : 172887999
        _STATISTICS_WRITING_APP: mkvpropedit v66.0.0 ('Josie') 64-bit
        _STATISTICS_WRITING_DATE_UTC: 2025-05-23 14:51:27
        _STATISTICS_TAGS: BPS DURATION NUMBER_OF_FRAMES NUMBER_OF_BYTES
  Stream #0:1: Audio: aac (LC), 48000 Hz, stereo, fltp (default)
      Metadata:
        HANDLER_NAME    : SoundHandler
        VENDOR_ID       : [0][0][0][0]
        ENCODER         : Lavc61.19.100 aac
        BPS             : 193528
        DURATION        : 00:23:46.730000000
        NUMBER_OF_FRAMES: 66879
        NUMBER_OF_BYTES : 34514151
        _STATISTICS_WRITING_APP: mkvpropedit v66.0.0 ('Josie') 64-bit
        _STATISTICS_WRITING_DATE_UTC: 2025-05-23 14:51:27
        _STATISTICS_TAGS: BPS DURATION NUMBER_OF_FRAMES NUMBER_OF_BYTES
Input #1, mov,mp4,m4a,3gp,3g2,mj2, from 'G:\Аниме\Онгоинги\!_33_Зима_2024\DreamCast\Неразумный ангел в танце с демоном\[DC] Oroka na Tenshi wa Akuma to Odoru - 02_Telegram.mp4':
  Metadata:
    major_brand     : isom
    minor_version   : 512
    compatible_brands: isomiso2avc1mp41
    encoder         : Lavf60.16.100
  Duration: 00:23:46.70, start: 0.000000, bitrate: 3917 kb/s
  Stream #1:0[0x1](und): Video: h264 (High) (avc1 / 0x31637661), yuv420p(tv, bt709, progressive), 1920x1080 [SAR 1:1 DAR 16:9], 3769 kb/s, 23.98 fps, 23.98 tbr, 24k tbn (default)
      Metadata:
        handler_name    : VideoHandler
        vendor_id       : [0][0][0][0]
        encoder         : Lavc60.31.102 h264_qsv
  Stream #1:1[0x2](und): Audio: aac (HE-AACv2) (mp4a / 0x6134706D), 48000 Hz, stereo, fltp, 144 kb/s (default)
      Metadata:
        handler_name    : SoundHandler
        vendor_id       : [0][0][0][0]
Stream mapping:
  Stream #0:0 (hevc) -> settb:default
  Stream #1:0 (h264) -> settb:default
  psnr:default -> Stream #0:0 (wrapped_avframe)
  Stream #0:1 -> #0:1 (aac (native) -> pcm_s16le (native))
Output #0, null, to 'pipe:':
  Metadata:
    COMPATIBLE_BRANDS: isomiso2avc1mp41
    MAJOR_BRAND     : isom
    MINOR_VERSION   : 512
    encoder         : Lavf61.7.100
  Stream #0:0: Video: wrapped_avframe, yuv420p10le(tv, bt709, progressive), 1920x1080 [SAR 1:1 DAR 16:9], q=2-31, 200 kb/s, 23.98 fps, 23.98 tbn
      Metadata:
        encoder         : Lavc61.19.100 wrapped_avframe
  Stream #0:1: Audio: pcm_s16le, 48000 Hz, stereo, s16, 1536 kb/s (default)
      Metadata:
        HANDLER_NAME    : SoundHandler
        VENDOR_ID       : [0][0][0][0]
        _STATISTICS_TAGS: BPS DURATION NUMBER_OF_FRAMES NUMBER_OF_BYTES
        BPS             : 193528
        DURATION        : 00:23:46.730000000
        NUMBER_OF_FRAMES: 66879
        NUMBER_OF_BYTES : 34514151
        _STATISTICS_WRITING_APP: mkvpropedit v66.0.0 ('Josie') 64-bit
        _STATISTICS_WRITING_DATE_UTC: 2025-05-23 14:51:27
        encoder         : Lavc61.19.100 pcm_s16le
frame=  182 fps=0.0 q=-0.0 size=N/A time=00:00:07.59 bitrate=N/A speed=14.7x    frame=  435 fps=424 q=-0.0 size=N/A time=00:00:18.14 bitrate=N/A speed=17.7x    frame=  669 fps=431 q=-0.0 size=N/A time=00:00:27.90 bitrate=N/A speed=  18x    frame=  882 fps=427 q=-0.0 size=N/A time=00:00:36.78 bitrate=N/A speed=17.8x    frame= 1090 fps=423 q=-0.0 size=N/A time=00:00:45.46 bitrate=N/A speed=17.7x    frame= 1315 fps=424 q=-0.0 size=N/A time=00:00:54.84 bitrate=N/A speed=17.7x    frame= 1528 fps=423 q=-0.0 size=N/A time=00:01:03.73 bitrate=N/A speed=17.7x    frame= 1752 fps=425 q=-0.0 size=N/A time=00:01:13.07 bitrate=N/A speed=17.7x    frame= 1917 fps=413 q=-0.0 size=N/A time=00:01:19.95 bitrate=N/A speed=17.2x    frame= 2125 fps=412 q=-0.0 size=N/A time=00:01:28.63 bitrate=N/A speed=17.2x    frame= 2384 fps=421 q=-0.0 size=N/A time=00:01:39.43 bitrate=N/A speed=17.5x    frame= 2648 fps=427 q=-0.0 size=N/A time=00:01:50.44 bitrate=N/A speed=17.8x    frame= 2914 fps=435 q=-0.0 size=N/A time=00:02:01.53 bitrate=N/A speed=18.1x    frame= 3180 fps=441 q=-0.0 size=N/A time=00:02:12.63 bitrate=N/A speed=18.4x    frame= 3470 fps=448 q=-0.0 size=N/A time=00:02:24.72 bitrate=N/A speed=18.7x    frame= 3747 fps=454 q=-0.0 size=N/A time=00:02:36.28 bitrate=N/A speed=18.9x    frame= 4007 fps=457 q=-0.0 size=N/A time=00:02:47.12 bitrate=N/A speed=19.1x    frame= 4284 fps=461 q=-0.0 size=N/A time=00:02:58.67 bitrate=N/A speed=19.2x    frame= 4533 fps=462 q=-0.0 size=N/A time=00:03:09.06 bitrate=N/A speed=19.3x    frame= 4764 fps=462 q=-0.0 size=N/A time=00:03:18.69 bitrate=N/A speed=19.3x    frame= 5022 fps=464 q=-0.0 size=N/A time=00:03:29.45 bitrate=N/A speed=19.3x    frame= 5267 fps=464 q=-0.0 size=N/A time=00:03:39.67 bitrate=N/A speed=19.4x    frame= 5536 fps=466 q=-0.0 size=N/A time=00:03:50.89 bitrate=N/A speed=19.5x    frame= 5795 fps=468 q=-0.0 size=N/A time=00:04:01.69 bitrate=N/A speed=19.5x    frame= 6066 fps=471 q=-0.0 size=N/A time=00:04:13.00 bitrate=N/A speed=19.6x    frame= 6234 fps=465 q=-0.0 size=N/A time=00:04:20.00 bitrate=N/A speed=19.4x    frame= 6493 fps=466 q=-0.0 size=N/A time=00:04:30.81 bitrate=N/A speed=19.4x    frame= 6774 fps=469 q=-0.0 size=N/A time=00:04:42.53 bitrate=N/A speed=19.6x    frame= 7009 fps=468 q=-0.0 size=N/A time=00:04:52.33 bitrate=N/A speed=19.5x    frame= 7254 fps=469 q=-0.0 size=N/A time=00:05:02.55 bitrate=N/A speed=19.6x    frame= 7481 fps=468 q=-0.0 size=N/A time=00:05:12.02 bitrate=N/A speed=19.5x    frame= 7735 fps=469 q=-0.0 size=N/A time=00:05:22.61 bitrate=N/A speed=19.5x    frame= 7984 fps=469 q=-0.0 size=N/A time=00:05:32.99 bitrate=N/A speed=19.6x    frame= 8230 fps=469 q=-0.0 size=N/A time=00:05:43.25 bitrate=N/A speed=19.6x    frame= 8469 fps=469 q=-0.0 size=N/A time=00:05:53.22 bitrate=N/A speed=19.6x    frame= 8723 fps=470 q=-0.0 size=N/A time=00:06:03.82 bitrate=N/A speed=19.6x    frame= 9012 fps=472 q=-0.0 size=N/A time=00:06:15.87 bitrate=N/A speed=19.7x    frame= 9287 fps=474 q=-0.0 size=N/A time=00:06:27.34 bitrate=N/A speed=19.8x    frame= 9579 fps=476 q=-0.0 size=N/A time=00:06:39.52 bitrate=N/A speed=19.8x    frame= 9856 fps=478 q=-0.0 size=N/A time=00:06:51.07 bitrate=N/A speed=19.9x    frame=10123 fps=478 q=-0.0 size=N/A time=00:07:02.21 bitrate=N/A speed=19.9x    frame=10385 fps=479 q=-0.0 size=N/A time=00:07:13.14 bitrate=N/A speed=  20x    frame=10604 fps=478 q=-0.0 size=N/A time=00:07:22.27 bitrate=N/A speed=19.9x    frame=10881 fps=479 q=-0.0 size=N/A time=00:07:33.82 bitrate=N/A speed=  20x    frame=11173 fps=481 q=-0.0 size=N/A time=00:07:46.00 bitrate=N/A speed=20.1x    frame=11431 fps=482 q=-0.0 size=N/A time=00:07:56.76 bitrate=N/A speed=20.1x    frame=11708 fps=483 q=-0.0 size=N/A time=00:08:08.32 bitrate=N/A speed=20.1x    frame=11975 fps=483 q=-0.0 size=N/A time=00:08:19.49 bitrate=N/A speed=20.2x    frame=12244 fps=484 q=-0.0 size=N/A time=00:08:30.67 bitrate=N/A speed=20.2x    frame=12506 fps=485 q=-0.0 size=N/A time=00:08:41.60 bitrate=N/A speed=20.2x    frame=12766 fps=485 q=-0.0 size=N/A time=00:08:52.44 bitrate=N/A speed=20.2x    frame=13039 fps=486 q=-0.0 size=N/A time=00:09:03.83 bitrate=N/A speed=20.3x    frame=13334 fps=488 q=-0.0 size=N/A time=00:09:16.13 bitrate=N/A speed=20.3x    frame=13598 fps=488 q=-0.0 size=N/A time=00:09:27.14 bitrate=N/A speed=20.4x    frame=13883 fps=489 q=-0.0 size=N/A time=00:09:39.03 bitrate=N/A speed=20.4x    frame=14174 fps=490 q=-0.0 size=N/A time=00:09:51.17 bitrate=N/A speed=20.4x    frame=14447 fps=491 q=-0.0 size=N/A time=00:10:02.56 bitrate=N/A speed=20.5x    frame=14734 fps=492 q=-0.0 size=N/A time=00:10:14.53 bitrate=N/A speed=20.5x    frame=15006 fps=493 q=-0.0 size=N/A time=00:10:25.87 bitrate=N/A speed=20.6x    frame=15302 fps=494 q=-0.0 size=N/A time=00:10:38.22 bitrate=N/A speed=20.6x    frame=15579 fps=495 q=-0.0 size=N/A time=00:10:49.77 bitrate=N/A speed=20.6x    frame=15859 fps=496 q=-0.0 size=N/A time=00:11:01.45 bitrate=N/A speed=20.7x    frame=16147 fps=497 q=-0.0 size=N/A time=00:11:13.46 bitrate=N/A speed=20.7x    frame=16440 fps=498 q=-0.0 size=N/A time=00:11:25.68 bitrate=N/A speed=20.8x    frame=16741 fps=499 q=-0.0 size=N/A time=00:11:38.23 bitrate=N/A speed=20.8x    frame=17005 fps=499 q=-0.0 size=N/A time=00:11:49.25 bitrate=N/A speed=20.8x    frame=17283 fps=500 q=-0.0 size=N/A time=00:12:00.84 bitrate=N/A speed=20.8x    frame=17568 fps=501 q=-0.0 size=N/A time=00:12:12.73 bitrate=N/A speed=20.9x    frame=17838 fps=501 q=-0.0 size=N/A time=00:12:23.99 bitrate=N/A speed=20.9x    frame=18074 fps=500 q=-0.0 size=N/A time=00:12:33.83 bitrate=N/A speed=20.9x    frame=18326 fps=500 q=-0.0 size=N/A time=00:12:44.34 bitrate=N/A speed=20.9x    frame=18584 fps=500 q=-0.0 size=N/A time=00:12:55.10 bitrate=N/A speed=20.9x    frame=18832 fps=500 q=-0.0 size=N/A time=00:13:05.45 bitrate=N/A speed=20.9x    frame=19090 fps=500 q=-0.0 size=N/A time=00:13:16.21 bitrate=N/A speed=20.8x    frame=19359 fps=500 q=-0.0 size=N/A time=00:13:27.43 bitrate=N/A speed=20.9x    frame=19631 fps=501 q=-0.0 size=N/A time=00:13:38.77 bitrate=N/A speed=20.9x    frame=19911 fps=501 q=-0.0 size=N/A time=00:13:50.45 bitrate=N/A speed=20.9x    frame=20181 fps=501 q=-0.0 size=N/A time=00:14:01.71 bitrate=N/A speed=20.9x    frame=20412 fps=501 q=-0.0 size=N/A time=00:14:11.35 bitrate=N/A speed=20.9x    frame=20670 fps=501 q=-0.0 size=N/A time=00:14:22.11 bitrate=N/A speed=20.9x    frame=20930 fps=501 q=-0.0 size=N/A time=00:14:32.95 bitrate=N/A speed=20.9x    frame=21198 fps=501 q=-0.0 size=N/A time=00:14:44.13 bitrate=N/A speed=20.9x    frame=21429 fps=500 q=-0.0 size=N/A time=00:14:53.76 bitrate=N/A speed=20.9x    frame=21669 fps=500 q=-0.0 size=N/A time=00:15:03.77 bitrate=N/A speed=20.9x    frame=21886 fps=499 q=-0.0 size=N/A time=00:15:12.82 bitrate=N/A speed=20.8x    frame=22141 fps=499 q=-0.0 size=N/A time=00:15:23.46 bitrate=N/A speed=20.8x    frame=22308 fps=497 q=-0.0 size=N/A time=00:15:30.42 bitrate=N/A speed=20.7x    frame=22460 fps=495 q=-0.0 size=N/A time=00:15:36.76 bitrate=N/A speed=20.6x    frame=22723 fps=495 q=-0.0 size=N/A time=00:15:47.73 bitrate=N/A speed=20.6x    frame=22990 fps=495 q=-0.0 size=N/A time=00:15:58.87 bitrate=N/A speed=20.7x    frame=23157 fps=493 q=-0.0 size=N/A time=00:16:05.83 bitrate=N/A speed=20.6x    frame=23345 fps=492 q=-0.0 size=N/A time=00:16:13.68 bitrate=N/A speed=20.5x    frame=23572 fps=491 q=-0.0 size=N/A time=00:16:23.14 bitrate=N/A speed=20.5x    frame=23762 fps=490 q=-0.0 size=N/A time=00:16:31.07 bitrate=N/A speed=20.4x    frame=24003 fps=490 q=-0.0 size=N/A time=00:16:41.12 bitrate=N/A speed=20.4x    frame=24256 fps=490 q=-0.0 size=N/A time=00:16:51.67 bitrate=N/A speed=20.4x    frame=24473 fps=489 q=-0.0 size=N/A time=00:17:00.72 bitrate=N/A speed=20.4x    frame=24680 fps=488 q=-0.0 size=N/A time=00:17:09.36 bitrate=N/A speed=20.4x    frame=24901 fps=487 q=-0.0 size=N/A time=00:17:18.57 bitrate=N/A speed=20.3x    frame=25142 fps=487 q=-0.0 size=N/A time=00:17:28.63 bitrate=N/A speed=20.3x    frame=25412 fps=488 q=-0.0 size=N/A time=00:17:39.89 bitrate=N/A speed=20.3x    frame=25671 fps=488 q=-0.0 size=N/A time=00:17:50.69 bitrate=N/A speed=20.3x    frame=25891 fps=487 q=-0.0 size=N/A time=00:17:59.87 bitrate=N/A speed=20.3x    frame=26111 fps=487 q=-0.0 size=N/A time=00:18:09.04 bitrate=N/A speed=20.3x    frame=26324 fps=486 q=-0.0 size=N/A time=00:18:17.93 bitrate=N/A speed=20.3x    frame=26546 fps=485 q=-0.0 size=N/A time=00:18:27.18 bitrate=N/A speed=20.2x    frame=26789 fps=485 q=-0.0 size=N/A time=00:18:37.32 bitrate=N/A speed=20.2x    frame=27024 fps=485 q=-0.0 size=N/A time=00:18:47.12 bitrate=N/A speed=20.2x    frame=27216 fps=484 q=-0.0 size=N/A time=00:18:55.13 bitrate=N/A speed=20.2x    frame=27465 fps=484 q=-0.0 size=N/A time=00:19:05.51 bitrate=N/A speed=20.2x    frame=27651 fps=483 q=-0.0 size=N/A time=00:19:13.27 bitrate=N/A speed=20.1x    frame=27871 fps=482 q=-0.0 size=N/A time=00:19:22.45 bitrate=N/A speed=20.1x    frame=28119 fps=482 q=-0.0 size=N/A time=00:19:32.79 bitrate=N/A speed=20.1x    frame=28350 fps=482 q=-0.0 size=N/A time=00:19:42.43 bitrate=N/A speed=20.1x    frame=28570 fps=482 q=-0.0 size=N/A time=00:19:51.60 bitrate=N/A speed=20.1x    frame=28815 fps=481 q=-0.0 size=N/A time=00:20:01.82 bitrate=N/A speed=20.1x    frame=29069 fps=482 q=-0.0 size=N/A time=00:20:12.41 bitrate=N/A speed=20.1x    frame=29330 fps=482 q=-0.0 size=N/A time=00:20:23.30 bitrate=N/A speed=20.1x    frame=29582 fps=482 q=-0.0 size=N/A time=00:20:33.81 bitrate=N/A speed=20.1x    frame=29810 fps=482 q=-0.0 size=N/A time=00:20:43.32 bitrate=N/A speed=20.1x    frame=30003 fps=481 q=-0.0 size=N/A time=00:20:51.37 bitrate=N/A speed=  20x    frame=30247 fps=480 q=-0.0 size=N/A time=00:21:01.55 bitrate=N/A speed=  20x    frame=30462 fps=480 q=-0.0 size=N/A time=00:21:10.51 bitrate=N/A speed=  20x    frame=30679 fps=480 q=-0.0 size=N/A time=00:21:19.56 bitrate=N/A speed=  20x    frame=30900 fps=479 q=-0.0 size=N/A time=00:21:28.78 bitrate=N/A speed=  20x    frame=31116 fps=479 q=-0.0 size=N/A time=00:21:37.79 bitrate=N/A speed=  20x    frame=31396 fps=479 q=-0.0 size=N/A time=00:21:49.47 bitrate=N/A speed=  20x    frame=31673 fps=480 q=-0.0 size=N/A time=00:22:01.02 bitrate=N/A speed=  20x    frame=31926 fps=480 q=-0.0 size=N/A time=00:22:11.58 bitrate=N/A speed=  20x    frame=32169 fps=480 q=-0.0 size=N/A time=00:22:21.71 bitrate=N/A speed=  20x    frame=32417 fps=480 q=-0.0 size=N/A time=00:22:32.05 bitrate=N/A speed=  20x    frame=32610 fps=479 q=-0.0 size=N/A time=00:22:40.10 bitrate=N/A speed=  20x    frame=32835 fps=478 q=-0.0 size=N/A time=00:22:49.49 bitrate=N/A speed=  20x    frame=33081 fps=478 q=-0.0 size=N/A time=00:22:59.75 bitrate=N/A speed=  20x    frame=33292 fps=478 q=-0.0 size=N/A time=00:23:08.55 bitrate=N/A speed=19.9x    frame=33526 fps=478 q=-0.0 size=N/A time=00:23:18.31 bitrate=N/A speed=19.9x    frame=33726 fps=477 q=-0.0 size=N/A time=00:23:26.65 bitrate=N/A speed=19.9x    frame=33969 fps=477 q=-0.0 size=N/A time=00:23:36.79 bitrate=N/A speed=19.9x    [Parsed_psnr_10 @ 000002a9e24e4cc0] PSNR y:48.908903 u:50.609021 v:50.716739 average:49.418609 min:37.583959 max:inf
[out#0/null @ 000002a9d496f580] video:14697KiB audio:267516KiB subtitle:0KiB other streams:0KiB global headers:0KiB muxing overhead: unknown
frame=34205 fps=477 q=-0.0 Lsize=N/A time=00:23:46.63 bitrate=N/A speed=19.9x    
